<svg width="131" height="47" viewBox="0 0 131 47" fill="none" xmlns="http://www.w3.org/2000/svg">
<path fill-rule="evenodd" clip-rule="evenodd" d="M125.106 34.072H129.264V5.89233H125.106V34.072Z" fill="white"/>
<path fill-rule="evenodd" clip-rule="evenodd" d="M116.452 34.0719H120.611V14.103H116.452V34.0719ZM118.532 5.19247C120.081 5.19247 121.34 6.44798 121.34 7.99453C121.34 9.54108 120.081 10.7967 118.532 10.7967C116.982 10.7967 115.724 9.54108 115.724 7.99453C115.724 6.44798 116.982 5.19247 118.532 5.19247Z" fill="white"/>
<path fill-rule="evenodd" clip-rule="evenodd" d="M111.957 34.072H107.869V31.8881C106.404 33.5437 103.823 34.5848 101.396 34.5848C95.5896 34.5848 90.876 29.881 90.876 24.0875C90.876 18.2938 95.5896 13.5902 101.396 13.5902C103.823 13.5902 106.268 14.5024 107.869 16.1159V14.103H111.957V34.072ZM101.529 17.7859C105.109 17.7859 107.925 20.3418 107.925 24.0875C107.925 27.8332 105.109 30.4112 101.529 30.4112C97.9489 30.4112 95.2283 27.6598 95.2283 24.0875C95.2283 20.5152 97.9489 17.7859 101.529 17.7859Z" fill="white"/>
<path fill-rule="evenodd" clip-rule="evenodd" d="M60.3495 34.072H56.2612V14.103H60.3495V15.4976C61.2574 14.6457 62.9592 13.5935 65.3199 13.5902C68.2215 13.5902 70.3841 14.8082 71.8665 16.7676C73.4866 14.8276 76.1585 13.5902 78.8811 13.5902C83.9903 13.5902 87.4718 17.0321 87.4718 22.3963V34.072H83.3834V22.3963C83.3834 19.7903 81.2586 17.67 78.6471 17.67C76.0353 17.67 73.9108 19.7903 73.9108 22.3963V34.072H69.8224V22.3963C69.8224 19.7903 67.6975 17.67 65.0859 17.67C62.4743 17.67 60.3495 19.7903 60.3495 22.3963V34.072Z" fill="white"/>
<path fill-rule="evenodd" clip-rule="evenodd" d="M28.7704 23.7364C28.7704 27.3679 25.8097 30.3223 22.1706 30.3223C18.5314 30.3223 15.5709 27.3679 15.5709 23.7364C15.5709 20.105 18.5314 17.1508 22.1706 17.1508C25.8097 17.1508 28.7704 20.105 28.7704 23.7364ZM22.1706 1.8418C10.0721 1.8418 0.229492 11.6636 0.229492 23.7364C0.229492 35.8093 10.0721 45.6313 22.1706 45.6313C26.6031 45.6313 30.8769 44.3145 34.5298 41.8232L34.5931 41.7798L31.6371 38.3505L31.5868 38.3829C28.7748 40.1881 25.5185 41.1424 22.1706 41.1424C12.5526 41.1424 4.7279 33.3341 4.7279 23.7364C4.7279 14.1388 12.5526 6.33069 22.1706 6.33069C31.7887 6.33069 39.6134 14.1388 39.6134 23.7364C39.6134 24.9802 39.4751 26.2394 39.2028 27.4782C38.6508 29.7369 37.0663 30.429 35.8755 30.3373C34.679 30.241 33.2782 29.3894 33.2689 27.3065V23.7364C33.2689 17.6298 28.2902 12.6617 22.1706 12.6617C16.0511 12.6617 11.0723 17.6298 11.0723 23.7364C11.0723 29.8431 16.0511 34.8114 22.1706 34.8114C25.143 34.8114 27.9317 33.6511 30.0335 31.542C31.2555 33.44 33.2486 34.6301 35.5152 34.8117C35.7096 34.8273 35.9081 34.8353 36.1054 34.8353C37.7015 34.8353 39.2831 34.3031 40.5586 33.3366C41.8741 32.3404 42.8558 30.8989 43.3981 29.1683C43.4857 28.8887 43.6443 28.2481 43.645 28.244L43.6497 28.2209C43.9693 26.8312 44.1119 25.4467 44.1119 23.7364C44.1119 11.6636 34.2691 1.8418 22.1706 1.8418Z" fill="#FF9E00"/>
</svg>
